<mxfile host="app.diagrams.net" modified="2022-07-01T00:08:32.941Z" agent="5.0 (Macintosh; Intel Mac OS X 10_15_7) AppleWebKit/537.36 (KHTML, like Gecko) Chrome/103.0.0.0 Safari/537.36" etag="Ompxx0DwyRdoUS8mbYII" version="20.0.1" type="github">
  <diagram id="R2lEEEUBdFMjLlhIrx00" name="Page-1">
    <mxGraphModel dx="946" dy="556" grid="1" gridSize="10" guides="1" tooltips="1" connect="1" arrows="1" fold="1" page="1" pageScale="1" pageWidth="850" pageHeight="1100" math="0" shadow="0" extFonts="Permanent Marker^https://fonts.googleapis.com/css?family=Permanent+Marker">
      <root>
        <mxCell id="0" />
        <mxCell id="1" parent="0" />
        <mxCell id="mRzLRAdTsN5l09lI_s6J-1" value="&lt;font color=&quot;#7f00ff&quot; style=&quot;font-size: 13px;&quot; face=&quot;Comic Sans MS&quot;&gt;TEAM&lt;/font&gt;" style="rounded=0;whiteSpace=wrap;html=1;" vertex="1" parent="1">
          <mxGeometry x="160" y="160" width="120" height="60" as="geometry" />
        </mxCell>
        <mxCell id="mRzLRAdTsN5l09lI_s6J-2" value="&lt;font color=&quot;#7f00ff&quot; face=&quot;Comic Sans MS&quot;&gt;PLAYER&lt;/font&gt;" style="rounded=0;whiteSpace=wrap;html=1;" vertex="1" parent="1">
          <mxGeometry x="365" y="280" width="120" height="60" as="geometry" />
        </mxCell>
        <mxCell id="mRzLRAdTsN5l09lI_s6J-3" value="GAME" style="rounded=0;whiteSpace=wrap;html=1;fontFamily=Comic Sans MS;fontSize=13;fontColor=#7F00FF;" vertex="1" parent="1">
          <mxGeometry x="570" y="160" width="120" height="60" as="geometry" />
        </mxCell>
        <mxCell id="mRzLRAdTsN5l09lI_s6J-4" value="P.Name" style="ellipse;whiteSpace=wrap;html=1;fontFamily=Comic Sans MS;fontSize=13;fontColor=#7F00FF;direction=south;" vertex="1" parent="1">
          <mxGeometry x="170" y="420" width="50" height="35" as="geometry" />
        </mxCell>
        <mxCell id="mRzLRAdTsN5l09lI_s6J-5" value="" style="endArrow=none;html=1;rounded=0;fontFamily=Comic Sans MS;fontSize=13;fontColor=#7F00FF;entryX=0.389;entryY=0.03;entryDx=0;entryDy=0;entryPerimeter=0;" edge="1" parent="1" target="mRzLRAdTsN5l09lI_s6J-4">
          <mxGeometry width="50" height="50" relative="1" as="geometry">
            <mxPoint x="400" y="340" as="sourcePoint" />
            <mxPoint x="450" y="260" as="targetPoint" />
          </mxGeometry>
        </mxCell>
        <mxCell id="mRzLRAdTsN5l09lI_s6J-6" value="has" style="rhombus;whiteSpace=wrap;html=1;fontFamily=Comic Sans MS;fontSize=13;fontColor=#7F00FF;" vertex="1" parent="1">
          <mxGeometry x="400" y="360" width="40" height="40" as="geometry" />
        </mxCell>
        <mxCell id="mRzLRAdTsN5l09lI_s6J-7" value="" style="endArrow=none;html=1;rounded=0;fontFamily=Comic Sans MS;fontSize=13;fontColor=#7F00FF;exitX=0.442;exitY=1.008;exitDx=0;exitDy=0;exitPerimeter=0;entryX=0.5;entryY=0;entryDx=0;entryDy=0;" edge="1" parent="1" source="mRzLRAdTsN5l09lI_s6J-2" target="mRzLRAdTsN5l09lI_s6J-6">
          <mxGeometry width="50" height="50" relative="1" as="geometry">
            <mxPoint x="400" y="310" as="sourcePoint" />
            <mxPoint x="450" y="260" as="targetPoint" />
          </mxGeometry>
        </mxCell>
        <mxCell id="mRzLRAdTsN5l09lI_s6J-9" value="" style="endArrow=none;html=1;rounded=0;fontFamily=Comic Sans MS;fontSize=13;fontColor=#7F00FF;" edge="1" parent="1">
          <mxGeometry width="50" height="50" relative="1" as="geometry">
            <mxPoint x="336.3719670505491" y="432.3995565466066" as="sourcePoint" />
            <mxPoint x="400" y="380" as="targetPoint" />
          </mxGeometry>
        </mxCell>
        <mxCell id="mRzLRAdTsN5l09lI_s6J-10" value="Position" style="rounded=1;whiteSpace=wrap;html=1;fontFamily=Comic Sans MS;fontSize=13;fontColor=#7F00FF;" vertex="1" parent="1">
          <mxGeometry x="290" y="430" width="80" height="40" as="geometry" />
        </mxCell>
        <mxCell id="mRzLRAdTsN5l09lI_s6J-11" value="Left wing" style="ellipse;whiteSpace=wrap;html=1;fontFamily=Comic Sans MS;fontSize=13;fontColor=#7F00FF;" vertex="1" parent="1">
          <mxGeometry x="120" y="500" width="120" height="40" as="geometry" />
        </mxCell>
        <mxCell id="mRzLRAdTsN5l09lI_s6J-12" value="Goalie" style="ellipse;whiteSpace=wrap;html=1;fontFamily=Comic Sans MS;fontSize=13;fontColor=#7F00FF;" vertex="1" parent="1">
          <mxGeometry x="370" y="490" width="120" height="40" as="geometry" />
        </mxCell>
        <mxCell id="mRzLRAdTsN5l09lI_s6J-13" value="" style="endArrow=none;html=1;rounded=0;fontFamily=Comic Sans MS;fontSize=13;fontColor=#7F00FF;" edge="1" parent="1">
          <mxGeometry width="50" height="50" relative="1" as="geometry">
            <mxPoint x="240" y="520" as="sourcePoint" />
            <mxPoint x="290" y="470" as="targetPoint" />
          </mxGeometry>
        </mxCell>
        <mxCell id="mRzLRAdTsN5l09lI_s6J-14" value="" style="endArrow=none;html=1;rounded=0;fontFamily=Comic Sans MS;fontSize=13;fontColor=#7F00FF;exitX=0.1;exitY=0.169;exitDx=0;exitDy=0;exitPerimeter=0;entryX=0.863;entryY=0.988;entryDx=0;entryDy=0;entryPerimeter=0;" edge="1" parent="1" source="mRzLRAdTsN5l09lI_s6J-12" target="mRzLRAdTsN5l09lI_s6J-10">
          <mxGeometry width="50" height="50" relative="1" as="geometry">
            <mxPoint x="330" y="500" as="sourcePoint" />
            <mxPoint x="380" y="450" as="targetPoint" />
          </mxGeometry>
        </mxCell>
        <mxCell id="mRzLRAdTsN5l09lI_s6J-15" value="has" style="rhombus;whiteSpace=wrap;html=1;fontFamily=Comic Sans MS;fontSize=13;fontColor=#7F00FF;" vertex="1" parent="1">
          <mxGeometry x="520" y="380" width="40" height="40" as="geometry" />
        </mxCell>
        <mxCell id="mRzLRAdTsN5l09lI_s6J-19" value="Injury Record" style="shape=ext;margin=3;double=1;whiteSpace=wrap;html=1;align=center;fontFamily=Comic Sans MS;fontSize=13;fontColor=#7F00FF;" vertex="1" parent="1">
          <mxGeometry x="550" y="460" width="100" height="40" as="geometry" />
        </mxCell>
        <mxCell id="mRzLRAdTsN5l09lI_s6J-20" value="" style="endArrow=classic;html=1;rounded=0;fontFamily=Comic Sans MS;fontSize=13;fontColor=#7F00FF;entryX=1;entryY=0.25;entryDx=0;entryDy=0;exitX=0.5;exitY=0;exitDx=0;exitDy=0;" edge="1" parent="1" source="mRzLRAdTsN5l09lI_s6J-15" target="mRzLRAdTsN5l09lI_s6J-2">
          <mxGeometry width="50" height="50" relative="1" as="geometry">
            <mxPoint x="500" y="370" as="sourcePoint" />
            <mxPoint x="450" y="260" as="targetPoint" />
          </mxGeometry>
        </mxCell>
        <mxCell id="mRzLRAdTsN5l09lI_s6J-22" value="" style="endArrow=none;html=1;rounded=0;fontFamily=Comic Sans MS;fontSize=13;fontColor=#7F00FF;entryX=0.5;entryY=1;entryDx=0;entryDy=0;" edge="1" parent="1" target="mRzLRAdTsN5l09lI_s6J-15">
          <mxGeometry width="50" height="50" relative="1" as="geometry">
            <mxPoint x="570" y="460" as="sourcePoint" />
            <mxPoint x="620" y="410" as="targetPoint" />
          </mxGeometry>
        </mxCell>
        <mxCell id="mRzLRAdTsN5l09lI_s6J-23" value="has" style="rhombus;whiteSpace=wrap;html=1;fontFamily=Comic Sans MS;fontSize=13;fontColor=#7F00FF;" vertex="1" parent="1">
          <mxGeometry x="460" y="410" width="40" height="40" as="geometry" />
        </mxCell>
        <mxCell id="mRzLRAdTsN5l09lI_s6J-24" value="" style="endArrow=none;html=1;rounded=0;fontFamily=Comic Sans MS;fontSize=13;fontColor=#7F00FF;exitX=0.5;exitY=0;exitDx=0;exitDy=0;" edge="1" parent="1" source="mRzLRAdTsN5l09lI_s6J-23">
          <mxGeometry width="50" height="50" relative="1" as="geometry">
            <mxPoint x="425" y="390" as="sourcePoint" />
            <mxPoint x="475" y="340" as="targetPoint" />
          </mxGeometry>
        </mxCell>
        <mxCell id="mRzLRAdTsN5l09lI_s6J-25" value="Skill Level" style="rounded=1;whiteSpace=wrap;html=1;fontFamily=Comic Sans MS;fontSize=13;fontColor=#7F00FF;" vertex="1" parent="1">
          <mxGeometry x="510" y="510" width="100" height="50" as="geometry" />
        </mxCell>
        <mxCell id="mRzLRAdTsN5l09lI_s6J-26" value="" style="endArrow=none;html=1;rounded=0;fontFamily=Comic Sans MS;fontSize=13;fontColor=#7F00FF;exitX=0.18;exitY=-0.05;exitDx=0;exitDy=0;exitPerimeter=0;" edge="1" parent="1" source="mRzLRAdTsN5l09lI_s6J-25">
          <mxGeometry width="50" height="50" relative="1" as="geometry">
            <mxPoint x="520" y="500" as="sourcePoint" />
            <mxPoint x="480" y="450" as="targetPoint" />
          </mxGeometry>
        </mxCell>
        <mxCell id="mRzLRAdTsN5l09lI_s6J-27" value="Name" style="ellipse;whiteSpace=wrap;html=1;fontFamily=Comic Sans MS;fontSize=13;fontColor=#7F00FF;" vertex="1" parent="1">
          <mxGeometry x="20" y="90" width="70" height="40" as="geometry" />
        </mxCell>
        <mxCell id="mRzLRAdTsN5l09lI_s6J-28" value="City" style="ellipse;whiteSpace=wrap;html=1;fontFamily=Comic Sans MS;fontSize=13;fontColor=#7F00FF;" vertex="1" parent="1">
          <mxGeometry x="100" y="60" width="90" height="40" as="geometry" />
        </mxCell>
        <mxCell id="mRzLRAdTsN5l09lI_s6J-30" value="Coach" style="ellipse;whiteSpace=wrap;html=1;fontFamily=Comic Sans MS;fontSize=13;fontColor=#7F00FF;" vertex="1" parent="1">
          <mxGeometry x="280" y="40" width="80" height="40" as="geometry" />
        </mxCell>
        <mxCell id="mRzLRAdTsN5l09lI_s6J-31" value="" style="endArrow=none;html=1;rounded=0;fontFamily=Comic Sans MS;fontSize=13;fontColor=#7F00FF;exitX=0;exitY=0;exitDx=0;exitDy=0;" edge="1" parent="1" source="mRzLRAdTsN5l09lI_s6J-1">
          <mxGeometry width="50" height="50" relative="1" as="geometry">
            <mxPoint x="20" y="180" as="sourcePoint" />
            <mxPoint x="70" y="130" as="targetPoint" />
          </mxGeometry>
        </mxCell>
        <mxCell id="mRzLRAdTsN5l09lI_s6J-32" value="" style="endArrow=none;html=1;rounded=0;fontFamily=Comic Sans MS;fontSize=13;fontColor=#7F00FF;exitX=0.5;exitY=0;exitDx=0;exitDy=0;" edge="1" parent="1" source="mRzLRAdTsN5l09lI_s6J-1">
          <mxGeometry width="50" height="50" relative="1" as="geometry">
            <mxPoint x="225" y="130" as="sourcePoint" />
            <mxPoint x="135" y="100" as="targetPoint" />
          </mxGeometry>
        </mxCell>
        <mxCell id="mRzLRAdTsN5l09lI_s6J-34" value="" style="endArrow=none;html=1;rounded=0;fontFamily=Comic Sans MS;fontSize=13;fontColor=#7F00FF;entryX=0.5;entryY=1;entryDx=0;entryDy=0;" edge="1" parent="1" target="mRzLRAdTsN5l09lI_s6J-30">
          <mxGeometry width="50" height="50" relative="1" as="geometry">
            <mxPoint x="260" y="160" as="sourcePoint" />
            <mxPoint x="260" y="95" as="targetPoint" />
          </mxGeometry>
        </mxCell>
        <mxCell id="mRzLRAdTsN5l09lI_s6J-35" value="belongs to" style="rhombus;whiteSpace=wrap;html=1;fontFamily=Comic Sans MS;fontSize=13;fontColor=#7F00FF;" vertex="1" parent="1">
          <mxGeometry x="230" y="240" width="80" height="80" as="geometry" />
        </mxCell>
        <mxCell id="mRzLRAdTsN5l09lI_s6J-36" value="" style="endArrow=none;html=1;rounded=0;fontFamily=Comic Sans MS;fontSize=13;fontColor=#7F00FF;entryX=1;entryY=0.5;entryDx=0;entryDy=0;exitX=0;exitY=0.25;exitDx=0;exitDy=0;" edge="1" parent="1" source="mRzLRAdTsN5l09lI_s6J-2" target="mRzLRAdTsN5l09lI_s6J-35">
          <mxGeometry width="50" height="50" relative="1" as="geometry">
            <mxPoint x="400" y="310" as="sourcePoint" />
            <mxPoint x="450" y="260" as="targetPoint" />
          </mxGeometry>
        </mxCell>
        <mxCell id="mRzLRAdTsN5l09lI_s6J-37" value="" style="endArrow=classic;html=1;rounded=0;fontFamily=Comic Sans MS;fontSize=13;fontColor=#7F00FF;exitX=0;exitY=0.5;exitDx=0;exitDy=0;" edge="1" parent="1" source="mRzLRAdTsN5l09lI_s6J-35">
          <mxGeometry width="50" height="50" relative="1" as="geometry">
            <mxPoint x="180" y="270" as="sourcePoint" />
            <mxPoint x="230" y="220" as="targetPoint" />
          </mxGeometry>
        </mxCell>
        <mxCell id="mRzLRAdTsN5l09lI_s6J-38" value="Captain" style="rhombus;whiteSpace=wrap;html=1;fontFamily=Comic Sans MS;fontSize=13;fontColor=#7F00FF;" vertex="1" parent="1">
          <mxGeometry x="300" y="190" width="80" height="80" as="geometry" />
        </mxCell>
        <mxCell id="mRzLRAdTsN5l09lI_s6J-39" value="" style="endArrow=classic;html=1;rounded=0;fontFamily=Comic Sans MS;fontSize=13;fontColor=#7F00FF;entryX=1;entryY=0.5;entryDx=0;entryDy=0;exitX=0;exitY=0.5;exitDx=0;exitDy=0;" edge="1" parent="1" source="mRzLRAdTsN5l09lI_s6J-38" target="mRzLRAdTsN5l09lI_s6J-1">
          <mxGeometry width="50" height="50" relative="1" as="geometry">
            <mxPoint x="295" y="250" as="sourcePoint" />
            <mxPoint x="345" y="200" as="targetPoint" />
          </mxGeometry>
        </mxCell>
        <mxCell id="mRzLRAdTsN5l09lI_s6J-40" value="" style="endArrow=classic;html=1;rounded=0;fontFamily=Comic Sans MS;fontSize=13;fontColor=#7F00FF;exitX=0.5;exitY=1;exitDx=0;exitDy=0;entryX=0.5;entryY=0;entryDx=0;entryDy=0;" edge="1" parent="1" source="mRzLRAdTsN5l09lI_s6J-38" target="mRzLRAdTsN5l09lI_s6J-2">
          <mxGeometry width="50" height="50" relative="1" as="geometry">
            <mxPoint x="400" y="310" as="sourcePoint" />
            <mxPoint x="450" y="260" as="targetPoint" />
          </mxGeometry>
        </mxCell>
        <mxCell id="mRzLRAdTsN5l09lI_s6J-42" value="Plays" style="rhombus;whiteSpace=wrap;html=1;fontFamily=Comic Sans MS;fontSize=13;fontColor=#7F00FF;" vertex="1" parent="1">
          <mxGeometry x="385" y="150" width="55" height="40" as="geometry" />
        </mxCell>
        <mxCell id="mRzLRAdTsN5l09lI_s6J-43" value="" style="endArrow=none;html=1;rounded=0;fontFamily=Comic Sans MS;fontSize=13;fontColor=#7F00FF;exitX=1;exitY=0.5;exitDx=0;exitDy=0;entryX=0;entryY=0.5;entryDx=0;entryDy=0;" edge="1" parent="1" source="mRzLRAdTsN5l09lI_s6J-42" target="mRzLRAdTsN5l09lI_s6J-3">
          <mxGeometry width="50" height="50" relative="1" as="geometry">
            <mxPoint x="520" y="215" as="sourcePoint" />
            <mxPoint x="570" y="165" as="targetPoint" />
          </mxGeometry>
        </mxCell>
        <mxCell id="mRzLRAdTsN5l09lI_s6J-44" value="" style="endArrow=none;html=1;rounded=0;fontFamily=Comic Sans MS;fontSize=13;fontColor=#7F00FF;exitX=1;exitY=0.142;exitDx=0;exitDy=0;exitPerimeter=0;entryX=0;entryY=0.5;entryDx=0;entryDy=0;" edge="1" parent="1" source="mRzLRAdTsN5l09lI_s6J-1" target="mRzLRAdTsN5l09lI_s6J-42">
          <mxGeometry width="50" height="50" relative="1" as="geometry">
            <mxPoint x="335" y="215" as="sourcePoint" />
            <mxPoint x="385" y="165" as="targetPoint" />
          </mxGeometry>
        </mxCell>
        <mxCell id="mRzLRAdTsN5l09lI_s6J-45" value="Date" style="ellipse;shape=doubleEllipse;margin=3;whiteSpace=wrap;html=1;align=center;fontFamily=Comic Sans MS;fontSize=13;fontColor=#7F00FF;" vertex="1" parent="1">
          <mxGeometry x="530" y="50" width="100" height="40" as="geometry" />
        </mxCell>
        <mxCell id="mRzLRAdTsN5l09lI_s6J-46" value="Score" style="ellipse;shape=doubleEllipse;margin=3;whiteSpace=wrap;html=1;align=center;fontFamily=Comic Sans MS;fontSize=13;fontColor=#7F00FF;" vertex="1" parent="1">
          <mxGeometry x="670" y="70" width="100" height="40" as="geometry" />
        </mxCell>
        <mxCell id="mRzLRAdTsN5l09lI_s6J-47" value="" style="endArrow=none;html=1;rounded=0;fontFamily=Comic Sans MS;fontSize=13;fontColor=#7F00FF;" edge="1" parent="1">
          <mxGeometry width="50" height="50" relative="1" as="geometry">
            <mxPoint x="670" y="160" as="sourcePoint" />
            <mxPoint x="720" y="110" as="targetPoint" />
          </mxGeometry>
        </mxCell>
        <mxCell id="mRzLRAdTsN5l09lI_s6J-48" value="" style="endArrow=none;html=1;rounded=0;fontFamily=Comic Sans MS;fontSize=13;fontColor=#7F00FF;exitX=0.25;exitY=0;exitDx=0;exitDy=0;" edge="1" parent="1" source="mRzLRAdTsN5l09lI_s6J-3">
          <mxGeometry width="50" height="50" relative="1" as="geometry">
            <mxPoint x="600" y="150" as="sourcePoint" />
            <mxPoint x="600" y="90" as="targetPoint" />
          </mxGeometry>
        </mxCell>
      </root>
    </mxGraphModel>
  </diagram>
</mxfile>
